<svg width="133" height="133" viewBox="0 0 133 133" fill="none" xmlns="http://www.w3.org/2000/svg">
<path fill-rule="evenodd" clip-rule="evenodd" d="M66.4587 120.875C59.318 120.875 52.2473 119.469 45.6502 116.736C39.0532 114.003 33.0589 109.998 28.0097 104.949C22.9605 99.8998 18.9553 93.9056 16.2227 87.3085C13.4901 80.7114 12.0836 73.6407 12.0836 66.5001C12.0836 59.3595 13.4901 52.2888 16.2227 45.6917C18.9553 39.0946 22.9605 33.1003 28.0097 28.0512C33.0589 23.002 39.0532 18.9967 45.6502 16.2641C52.2473 13.5315 59.318 12.1251 66.4587 12.1251C80.8798 12.1251 94.7103 17.8539 104.908 28.0512C115.105 38.2484 120.834 52.0789 120.834 66.5001C120.834 80.9212 115.105 94.7517 104.908 104.949C94.7103 115.146 80.8798 120.875 66.4587 120.875ZM66.4587 132.958C29.7555 132.958 0.000320435 103.203 0.000320435 66.5001C0.000320435 29.797 29.7555 0.041748 66.4587 0.041748C103.162 0.041748 132.917 29.797 132.917 66.5001C132.917 103.203 103.162 132.958 66.4587 132.958Z" fill="#4A90E2"/>
<path d="M47.9102 62.4456C45.1448 64.4412 45.1448 68.5588 47.9102 70.5545L70.616 86.9405C73.9229 89.327 78.542 86.9641 78.542 82.8861V50.114C78.542 46.036 73.9228 43.6731 70.616 46.0595L47.9102 62.4456Z" fill="#4A90E2"/>
</svg>
