<svg width="322" height="118" viewBox="0 0 322 118" fill="none" xmlns="http://www.w3.org/2000/svg">
<path d="M82.84 68.4C82.3067 68.4 81.9067 68.32 81.64 68.16C81.4 68.0267 81.24 67.8267 81.16 67.56C81.08 67.2667 81.04 66.9333 81.04 66.56V42.28C81.04 41.5867 81.1733 41.12 81.44 40.88C81.7333 40.6133 82.24 40.48 82.96 40.48H99.04C99.4133 40.48 99.7333 40.52 100 40.6C100.267 40.68 100.467 40.8533 100.6 41.12C100.733 41.3867 100.8 41.7867 100.8 42.32C100.8 42.8533 100.72 43.2533 100.56 43.52C100.427 43.76 100.227 43.92 99.96 44C99.6933 44.08 99.3733 44.12 99 44.12H84.64V52.4H94.64C95.0133 52.4 95.32 52.44 95.56 52.52C95.8267 52.6 96.0267 52.76 96.16 53C96.2933 53.24 96.36 53.6133 96.36 54.12C96.36 54.6 96.2933 54.96 96.16 55.2C96.0267 55.44 95.8267 55.6 95.56 55.68C95.2933 55.7333 94.96 55.76 94.56 55.76H84.64V64.8H99.04C99.4133 64.8 99.7333 64.84 100 64.92C100.267 65 100.467 65.1733 100.6 65.44C100.733 65.68 100.8 66.0667 100.8 66.6C100.8 67.1333 100.72 67.5333 100.56 67.8C100.427 68.04 100.227 68.2 99.96 68.28C99.6933 68.36 99.3733 68.4 99 68.4H82.84ZM112.802 68.36C112.295 68.36 111.909 68.28 111.642 68.12C111.402 67.9867 111.242 67.7867 111.162 67.52C111.109 67.2533 111.082 66.9333 111.082 66.56V50.68C111.082 50.3333 111.122 50.04 111.202 49.8C111.282 49.56 111.442 49.3733 111.682 49.24C111.949 49.1067 112.335 49.04 112.842 49.04C113.242 49.04 113.549 49.0933 113.762 49.2C114.002 49.28 114.162 49.4 114.242 49.56C114.349 49.72 114.415 49.8933 114.442 50.08C114.469 50.2667 114.482 50.44 114.482 50.6L114.402 52.44C114.669 51.9867 115.002 51.56 115.402 51.16C115.802 50.7333 116.269 50.36 116.802 50.04C117.335 49.6933 117.909 49.4267 118.522 49.24C119.162 49.0533 119.842 48.96 120.562 48.96C121.735 48.96 122.815 49.1733 123.802 49.6C124.789 50 125.629 50.6 126.322 51.4C127.042 52.1733 127.589 53.1067 127.962 54.2C128.362 55.2933 128.562 56.5333 128.562 57.92V66.6C128.562 66.9733 128.522 67.2933 128.442 67.56C128.389 67.8267 128.229 68.0267 127.962 68.16C127.722 68.2933 127.349 68.36 126.842 68.36C126.309 68.36 125.909 68.28 125.642 68.12C125.402 67.9867 125.242 67.7867 125.162 67.52C125.082 67.2533 125.042 66.9333 125.042 66.56V57.88C125.042 56.76 124.855 55.7867 124.482 54.96C124.109 54.1333 123.549 53.4933 122.802 53.04C122.055 52.56 121.109 52.32 119.962 52.32C118.869 52.32 117.909 52.56 117.082 53.04C116.282 53.4933 115.655 54.1333 115.202 54.96C114.775 55.7867 114.562 56.76 114.562 57.88V66.6C114.562 66.9733 114.522 67.2933 114.442 67.56C114.362 67.8267 114.189 68.0267 113.922 68.16C113.682 68.2933 113.309 68.36 112.802 68.36ZM147.068 76.24C146.134 76.24 145.241 76.1333 144.388 75.92C143.534 75.7067 142.788 75.4267 142.148 75.08C141.508 74.7333 141.001 74.36 140.628 73.96C140.254 73.56 140.068 73.1867 140.068 72.84C140.068 72.5733 140.108 72.3467 140.188 72.16C140.268 72 140.388 71.8267 140.548 71.64C140.814 71.3733 141.028 71.1867 141.188 71.08C141.348 70.9733 141.561 70.92 141.828 70.92C142.094 70.92 142.361 71.0267 142.628 71.24C142.894 71.48 143.214 71.7333 143.588 72C143.988 72.2933 144.468 72.5467 145.028 72.76C145.614 73 146.334 73.12 147.188 73.12C148.068 73.12 148.854 72.9867 149.548 72.72C150.241 72.4533 150.841 72.0533 151.348 71.52C151.854 70.9867 152.241 70.3333 152.508 69.56C152.774 68.8133 152.908 67.96 152.908 67L152.828 50.36C152.854 49.8533 153.001 49.4933 153.268 49.28C153.561 49.0667 154.014 48.96 154.628 48.96C155.134 48.96 155.494 49.04 155.708 49.2C155.948 49.3333 156.094 49.5333 156.148 49.8C156.228 50.04 156.268 50.3467 156.268 50.72V67.28C156.268 68.6933 156.041 69.9467 155.588 71.04C155.134 72.16 154.494 73.1067 153.668 73.88C152.841 74.6533 151.868 75.24 150.748 75.64C149.628 76.04 148.401 76.24 147.068 76.24ZM146.948 67.96C145.668 67.96 144.481 67.7333 143.388 67.28C142.321 66.8 141.374 66.1333 140.548 65.28C139.748 64.4267 139.121 63.4267 138.668 62.28C138.241 61.1333 138.028 59.88 138.028 58.52C138.028 57.16 138.241 55.9067 138.668 54.76C139.121 53.6133 139.748 52.6133 140.548 51.76C141.348 50.9067 142.281 50.2533 143.348 49.8C144.441 49.32 145.628 49.08 146.908 49.08C148.081 49.08 149.148 49.3067 150.108 49.76C151.068 50.2133 151.881 50.8667 152.548 51.72C153.241 52.5467 153.761 53.5333 154.108 54.68C154.454 55.8267 154.628 57.1067 154.628 58.52C154.628 60.44 154.321 62.1067 153.708 63.52C153.094 64.9333 152.214 66.0267 151.068 66.8C149.921 67.5733 148.548 67.96 146.948 67.96ZM147.148 64.68C148.214 64.68 149.174 64.4133 150.028 63.88C150.881 63.3467 151.561 62.6133 152.068 61.68C152.574 60.7467 152.828 59.6667 152.828 58.44C152.828 57.24 152.574 56.1867 152.068 55.28C151.561 54.3467 150.868 53.6267 149.988 53.12C149.134 52.6133 148.161 52.36 147.068 52.36C145.974 52.36 145.001 52.6133 144.148 53.12C143.294 53.6267 142.628 54.3467 142.148 55.28C141.694 56.1867 141.468 57.2533 141.468 58.48C141.468 59.7067 141.708 60.7867 142.188 61.72C142.668 62.6267 143.334 63.3467 144.188 63.88C145.041 64.4133 146.028 64.68 147.148 64.68ZM173.205 68.4C172.351 68.4 171.578 68.32 170.885 68.16C170.218 68.0267 169.631 67.8 169.125 67.48C168.618 67.16 168.191 66.7467 167.845 66.24C167.525 65.7333 167.285 65.12 167.125 64.4C166.991 63.68 166.925 62.84 166.925 61.88V41.88C166.925 41.48 166.951 41.1467 167.005 40.88C167.085 40.6133 167.258 40.4133 167.525 40.28C167.791 40.12 168.165 40.04 168.645 40.04C169.178 40.04 169.565 40.1067 169.805 40.24C170.071 40.3733 170.245 40.5733 170.325 40.84C170.405 41.1067 170.445 41.4267 170.445 41.8V61.84C170.445 62.3733 170.498 62.84 170.605 63.24C170.711 63.6133 170.871 63.9333 171.085 64.2C171.325 64.4667 171.618 64.6533 171.965 64.76C172.311 64.8667 172.725 64.92 173.205 64.92C173.525 64.92 173.791 64.96 174.005 65.04C174.245 65.12 174.431 65.28 174.565 65.52C174.698 65.76 174.765 66.1333 174.765 66.64C174.765 67.1733 174.698 67.5733 174.565 67.84C174.431 68.08 174.245 68.2267 174.005 68.28C173.791 68.36 173.525 68.4 173.205 68.4ZM185.935 68.4C185.428 68.4 185.041 68.32 184.775 68.16C184.535 68.0267 184.375 67.8267 184.295 67.56C184.215 67.2933 184.175 66.9733 184.175 66.6V50.8C184.175 50.4267 184.215 50.1067 184.295 49.84C184.375 49.5733 184.535 49.3733 184.775 49.24C185.041 49.1067 185.441 49.04 185.975 49.04C186.481 49.04 186.855 49.12 187.095 49.28C187.335 49.4133 187.495 49.6133 187.575 49.88C187.655 50.1467 187.695 50.48 187.695 50.88V66.64C187.695 67.0133 187.655 67.3333 187.575 67.6C187.495 67.8667 187.321 68.0667 187.055 68.2C186.815 68.3333 186.441 68.4 185.935 68.4ZM185.935 44.24C185.348 44.24 184.908 44.16 184.615 44C184.321 43.8133 184.121 43.56 184.015 43.24C183.935 42.92 183.895 42.5467 183.895 42.12C183.895 41.6933 183.948 41.3333 184.055 41.04C184.161 40.72 184.361 40.4933 184.655 40.36C184.948 40.2 185.388 40.12 185.975 40.12C186.535 40.12 186.961 40.2 187.255 40.36C187.548 40.52 187.735 40.76 187.815 41.08C187.921 41.4 187.975 41.7733 187.975 42.2C187.975 42.6267 187.921 43 187.815 43.32C187.735 43.6133 187.548 43.84 187.255 44C186.961 44.16 186.521 44.24 185.935 44.24ZM204.96 68.6C204.32 68.6 203.653 68.5333 202.96 68.4C202.267 68.2667 201.587 68.08 200.92 67.84C200.28 67.5733 199.707 67.2667 199.2 66.92C198.72 66.5733 198.36 66.1867 198.12 65.76C197.987 65.4933 197.907 65.2533 197.88 65.04C197.853 64.8 197.893 64.5733 198 64.36C198.107 64.1467 198.267 63.9333 198.48 63.72C198.747 63.4 199.013 63.2533 199.28 63.28C199.547 63.28 199.88 63.4533 200.28 63.8C200.573 63.9867 200.92 64.2 201.32 64.44C201.72 64.6533 202.133 64.8533 202.56 65.04C202.987 65.2 203.413 65.3467 203.84 65.48C204.293 65.5867 204.733 65.64 205.16 65.64C206.387 65.64 207.373 65.4133 208.12 64.96C208.867 64.48 209.24 63.8533 209.24 63.08C209.24 62.6267 209.147 62.24 208.96 61.92C208.773 61.6 208.52 61.3333 208.2 61.12C207.88 60.88 207.52 60.68 207.12 60.52C206.72 60.36 206.267 60.2133 205.76 60.08C205.28 59.92 204.8 59.7733 204.32 59.64C203.6 59.4533 202.893 59.24 202.2 59C201.507 58.76 200.88 58.4533 200.32 58.08C199.76 57.68 199.307 57.1867 198.96 56.6C198.613 55.9867 198.44 55.2133 198.44 54.28C198.44 53.1867 198.72 52.24 199.28 51.44C199.84 50.64 200.627 50.0267 201.64 49.6C202.653 49.1467 203.84 48.92 205.2 48.92C205.787 48.92 206.333 48.96 206.84 49.04C207.347 49.12 207.827 49.2533 208.28 49.44C208.76 49.6 209.213 49.8 209.64 50.04C210.067 50.2533 210.48 50.52 210.88 50.84C211.36 51.16 211.613 51.5067 211.64 51.88C211.667 52.2533 211.52 52.64 211.2 53.04C210.96 53.3867 210.693 53.6133 210.4 53.72C210.107 53.8 209.813 53.72 209.52 53.48C209.093 53.16 208.64 52.88 208.16 52.64C207.68 52.4 207.187 52.2 206.68 52.04C206.173 51.88 205.653 51.8 205.12 51.8C204.453 51.8 203.853 51.9067 203.32 52.12C202.813 52.3067 202.413 52.6 202.12 53C201.853 53.3733 201.72 53.8 201.72 54.28C201.72 54.7067 201.827 55.0533 202.04 55.32C202.28 55.5867 202.573 55.8133 202.92 56C203.293 56.1867 203.72 56.36 204.2 56.52C204.707 56.6533 205.227 56.7867 205.76 56.92C206.533 57.1067 207.32 57.3333 208.12 57.6C208.947 57.84 209.68 58.1733 210.32 58.6C210.987 59 211.52 59.5467 211.92 60.24C212.347 60.9067 212.56 61.8 212.56 62.92C212.56 64.68 211.867 66.0667 210.48 67.08C209.093 68.0933 207.253 68.6 204.96 68.6ZM223.959 68.4C223.453 68.4 223.066 68.32 222.799 68.16C222.533 68.0267 222.359 67.8267 222.279 67.56C222.226 67.2667 222.199 66.9333 222.199 66.56V41.92C222.199 41.5467 222.239 41.2267 222.319 40.96C222.399 40.6933 222.573 40.4933 222.839 40.36C223.106 40.2 223.493 40.12 223.999 40.12C224.533 40.12 224.919 40.2 225.159 40.36C225.426 40.4933 225.586 40.6933 225.639 40.96C225.719 41.2267 225.759 41.56 225.759 41.96V51.84C226.399 51.0933 227.173 50.4267 228.079 49.84C229.013 49.2533 230.146 48.96 231.479 48.96C233.053 48.96 234.453 49.3333 235.679 50.08C236.933 50.8 237.919 51.8267 238.639 53.16C239.386 54.4933 239.759 56.08 239.759 57.92V66.6C239.759 66.9733 239.719 67.2933 239.639 67.56C239.559 67.8267 239.399 68.0267 239.159 68.16C238.919 68.32 238.533 68.4 237.999 68.4C237.493 68.4 237.106 68.32 236.839 68.16C236.573 68.0267 236.399 67.8267 236.319 67.56C236.239 67.2667 236.199 66.9333 236.199 66.56V57.88C236.199 56.76 236.013 55.7867 235.639 54.96C235.266 54.1333 234.706 53.4933 233.959 53.04C233.239 52.5867 232.319 52.36 231.199 52.36C229.679 52.36 228.426 52.8 227.439 53.68C226.479 54.5333 225.919 55.68 225.759 57.12V66.6C225.759 66.9733 225.719 67.2933 225.639 67.56C225.559 67.8267 225.386 68.0267 225.119 68.16C224.879 68.32 224.493 68.4 223.959 68.4ZM256.766 68.52C255.992 68.52 255.232 68.4267 254.486 68.24C253.766 68.0533 253.099 67.8133 252.486 67.52C251.872 67.2267 251.326 66.9067 250.846 66.56C250.366 66.2133 249.966 65.88 249.646 65.56C249.352 65.2667 249.099 65 248.886 64.76C248.699 64.52 248.606 64.2933 248.606 64.08C248.606 63.84 248.686 63.6 248.846 63.36C249.006 63.0933 249.179 62.8667 249.366 62.68C249.659 62.3867 249.899 62.2 250.086 62.12C250.299 62.0133 250.499 61.96 250.686 61.96C251.059 61.96 251.352 62.08 251.566 62.32C251.806 62.56 252.152 62.8933 252.606 63.32C252.872 63.5067 253.219 63.7333 253.646 64C254.072 64.2667 254.566 64.5067 255.126 64.72C255.686 64.9067 256.286 65 256.926 65C257.806 65 258.566 64.84 259.206 64.52C259.846 64.2 260.366 63.7467 260.766 63.16C261.192 62.5733 261.512 61.8933 261.726 61.12C261.939 60.32 262.046 59.4667 262.046 58.56V42.6C262.046 42.1733 262.086 41.8 262.166 41.48C262.246 41.16 262.419 40.92 262.686 40.76C262.979 40.5733 263.392 40.48 263.926 40.48C264.432 40.48 264.806 40.56 265.046 40.72C265.286 40.8533 265.446 41.0667 265.526 41.36C265.606 41.6267 265.646 41.9467 265.646 42.32V58.88C265.646 60.2933 265.446 61.5867 265.046 62.76C264.672 63.9333 264.112 64.9467 263.366 65.8C262.619 66.6533 261.686 67.32 260.566 67.8C259.472 68.28 258.206 68.52 256.766 68.52ZM285.369 68.64C284.062 68.64 282.809 68.3867 281.609 67.88C280.436 67.3733 279.382 66.68 278.449 65.8C277.516 64.8933 276.782 63.84 276.249 62.64C275.716 61.44 275.449 60.1333 275.449 58.72C275.449 57.3333 275.702 56.0533 276.209 54.88C276.716 53.68 277.422 52.6267 278.329 51.72C279.236 50.8133 280.276 50.1067 281.449 49.6C282.649 49.0667 283.929 48.8 285.289 48.8C287.129 48.8 288.782 49.24 290.249 50.12C291.742 50.9733 292.929 52.1467 293.809 53.64C294.689 55.1333 295.129 56.8133 295.129 58.68C295.129 60.1467 294.862 61.4933 294.329 62.72C293.796 63.92 293.076 64.96 292.169 65.84C291.262 66.72 290.222 67.4133 289.049 67.92C287.876 68.4 286.649 68.64 285.369 68.64ZM285.289 65.16C286.409 65.16 287.449 64.88 288.409 64.32C289.369 63.76 290.142 62.9867 290.729 62C291.316 61.0133 291.609 59.8933 291.609 58.64C291.609 57.3867 291.329 56.28 290.769 55.32C290.236 54.36 289.489 53.6133 288.529 53.08C287.569 52.5467 286.476 52.28 285.249 52.28C284.076 52.28 283.009 52.56 282.049 53.12C281.116 53.68 280.356 54.44 279.769 55.4C279.209 56.36 278.929 57.4533 278.929 58.68C278.929 59.96 279.222 61.0933 279.809 62.08C280.396 63.04 281.169 63.8 282.129 64.36C283.116 64.8933 284.169 65.16 285.289 65.16ZM307.661 76.16C307.021 75.8933 306.648 75.5867 306.541 75.24C306.434 74.8933 306.528 74.4133 306.821 73.8L317.421 50C317.714 49.3867 318.021 49.0133 318.341 48.88C318.688 48.72 319.168 48.7733 319.781 49.04C320.421 49.3333 320.781 49.6533 320.861 50C320.968 50.3467 320.888 50.8133 320.621 51.4L309.941 75.32C309.674 75.9333 309.381 76.2933 309.061 76.4C308.741 76.5067 308.274 76.4267 307.661 76.16ZM311.621 65.84L302.461 51.72C302.114 51.1867 301.981 50.7467 302.061 50.4C302.141 50.0267 302.448 49.6667 302.981 49.32C303.568 48.9467 304.034 48.8133 304.381 48.92C304.754 49 305.128 49.3067 305.501 49.84L313.261 62.04L311.621 65.84Z" fill="black"/>
<path d="M46.5291 2.19584C58.6235 14.5997 61.3077 24.1316 59.0654 31.9135C56.7147 40.0717 48.9076 46.5283 40.0663 52.4795C37.628 54.1207 35.1494 55.6996 32.6961 57.2624C30.6875 58.5419 28.6959 59.8106 26.7572 61.0939C22.4881 63.9197 18.5565 66.7661 15.5775 69.7792C12.5994 72.7914 10.5302 76.013 10.0646 79.5944C9.73667 82.1164 10.2098 84.7682 11.6519 87.5949C1.83228 77.5488 -0.62873 69.8777 0.934212 63.5067C1.79813 59.9851 3.90413 56.7902 6.80922 53.7512C9.71502 50.7113 13.3945 47.8536 17.3676 45.0003C18.9425 43.8693 20.5647 42.7386 22.2011 41.5979C28.7864 37.0077 35.603 32.2563 40.5017 26.6749C43.5708 23.1782 45.9132 19.3303 46.9867 14.958C47.9298 11.1167 47.8865 6.89847 46.5291 2.19584Z" fill="#FFC107" stroke="white"/>
<path d="M56.2823 43.7992C64.4692 53.2807 66.0275 60.2047 64.163 65.7009C63.1451 68.7016 61.0885 71.3449 58.3966 73.7957C55.7043 76.247 52.404 78.4812 48.933 80.6734C47.8166 81.3784 46.6809 82.0802 45.5432 82.783C43.1582 84.2566 40.7648 85.7353 38.5242 87.2608C35.2103 89.5171 32.1827 91.9065 29.9351 94.5996C27.6823 97.299 26.1999 100.32 26.0097 103.827C25.85 106.772 26.6033 110.014 28.5077 113.647C17.3402 105.044 14.1783 98.1867 15.2555 92.389C15.8286 89.3043 17.6107 86.434 20.1853 83.6784C22.7595 80.9233 26.0959 78.3143 29.7259 75.7486C31.7697 74.3041 33.8803 72.8909 35.9945 71.4753C37.6537 70.3643 39.3152 69.2518 40.9484 68.1215C44.6361 65.5692 48.1246 62.962 50.8999 60.2049C53.6734 57.4495 55.7685 54.5118 56.6196 51.2905C57.2445 48.9253 57.1907 46.4376 56.2823 43.7992Z" fill="#4A90E2" stroke="white"/>
<path d="M43.8225 97.3806H43.8227C49.7468 97.3806 54.4691 101.74 54.4691 107.023C54.4691 112.304 49.7468 116.666 43.8227 116.666C37.8984 116.666 33.1763 112.31 33.1763 107.023C33.1763 101.74 37.8987 97.3787 43.8225 97.3806Z" fill="#39B54A" stroke="white"/>
</svg>
