<svg width="322" height="121" viewBox="0 0 322 121" fill="none" xmlns="http://www.w3.org/2000/svg">
<path d="M82.84 66.4C82.3067 66.4 81.9067 66.32 81.64 66.16C81.4 66.0267 81.24 65.8267 81.16 65.56C81.08 65.2667 81.04 64.9333 81.04 64.56V40.28C81.04 39.5867 81.1733 39.12 81.44 38.88C81.7333 38.6133 82.24 38.48 82.96 38.48H99.04C99.4133 38.48 99.7333 38.52 100 38.6C100.267 38.68 100.467 38.8533 100.6 39.12C100.733 39.3867 100.8 39.7867 100.8 40.32C100.8 40.8533 100.72 41.2533 100.56 41.52C100.427 41.76 100.227 41.92 99.96 42C99.6933 42.08 99.3733 42.12 99 42.12H84.64V50.4H94.64C95.0133 50.4 95.32 50.44 95.56 50.52C95.8267 50.6 96.0267 50.76 96.16 51C96.2933 51.24 96.36 51.6133 96.36 52.12C96.36 52.6 96.2933 52.96 96.16 53.2C96.0267 53.44 95.8267 53.6 95.56 53.68C95.2933 53.7333 94.96 53.76 94.56 53.76H84.64V62.8H99.04C99.4133 62.8 99.7333 62.84 100 62.92C100.267 63 100.467 63.1733 100.6 63.44C100.733 63.68 100.8 64.0667 100.8 64.6C100.8 65.1333 100.72 65.5333 100.56 65.8C100.427 66.04 100.227 66.2 99.96 66.28C99.6933 66.36 99.3733 66.4 99 66.4H82.84ZM112.802 66.36C112.295 66.36 111.909 66.28 111.642 66.12C111.402 65.9867 111.242 65.7867 111.162 65.52C111.109 65.2533 111.082 64.9333 111.082 64.56V48.68C111.082 48.3333 111.122 48.04 111.202 47.8C111.282 47.56 111.442 47.3733 111.682 47.24C111.949 47.1067 112.335 47.04 112.842 47.04C113.242 47.04 113.549 47.0933 113.762 47.2C114.002 47.28 114.162 47.4 114.242 47.56C114.349 47.72 114.415 47.8933 114.442 48.08C114.469 48.2667 114.482 48.44 114.482 48.6L114.402 50.44C114.669 49.9867 115.002 49.56 115.402 49.16C115.802 48.7333 116.269 48.36 116.802 48.04C117.335 47.6933 117.909 47.4267 118.522 47.24C119.162 47.0533 119.842 46.96 120.562 46.96C121.735 46.96 122.815 47.1733 123.802 47.6C124.789 48 125.629 48.6 126.322 49.4C127.042 50.1733 127.589 51.1067 127.962 52.2C128.362 53.2933 128.562 54.5333 128.562 55.92V64.6C128.562 64.9733 128.522 65.2933 128.442 65.56C128.389 65.8267 128.229 66.0267 127.962 66.16C127.722 66.2933 127.349 66.36 126.842 66.36C126.309 66.36 125.909 66.28 125.642 66.12C125.402 65.9867 125.242 65.7867 125.162 65.52C125.082 65.2533 125.042 64.9333 125.042 64.56V55.88C125.042 54.76 124.855 53.7867 124.482 52.96C124.109 52.1333 123.549 51.4933 122.802 51.04C122.055 50.56 121.109 50.32 119.962 50.32C118.869 50.32 117.909 50.56 117.082 51.04C116.282 51.4933 115.655 52.1333 115.202 52.96C114.775 53.7867 114.562 54.76 114.562 55.88V64.6C114.562 64.9733 114.522 65.2933 114.442 65.56C114.362 65.8267 114.189 66.0267 113.922 66.16C113.682 66.2933 113.309 66.36 112.802 66.36ZM147.068 74.24C146.134 74.24 145.241 74.1333 144.388 73.92C143.534 73.7067 142.788 73.4267 142.148 73.08C141.508 72.7333 141.001 72.36 140.628 71.96C140.254 71.56 140.068 71.1867 140.068 70.84C140.068 70.5733 140.108 70.3467 140.188 70.16C140.268 70 140.388 69.8267 140.548 69.64C140.814 69.3733 141.028 69.1867 141.188 69.08C141.348 68.9733 141.561 68.92 141.828 68.92C142.094 68.92 142.361 69.0267 142.628 69.24C142.894 69.48 143.214 69.7333 143.588 70C143.988 70.2933 144.468 70.5467 145.028 70.76C145.614 71 146.334 71.12 147.188 71.12C148.068 71.12 148.854 70.9867 149.548 70.72C150.241 70.4533 150.841 70.0533 151.348 69.52C151.854 68.9867 152.241 68.3333 152.508 67.56C152.774 66.8133 152.908 65.96 152.908 65L152.828 48.36C152.854 47.8533 153.001 47.4933 153.268 47.28C153.561 47.0667 154.014 46.96 154.628 46.96C155.134 46.96 155.494 47.04 155.708 47.2C155.948 47.3333 156.094 47.5333 156.148 47.8C156.228 48.04 156.268 48.3467 156.268 48.72V65.28C156.268 66.6933 156.041 67.9467 155.588 69.04C155.134 70.16 154.494 71.1067 153.668 71.88C152.841 72.6533 151.868 73.24 150.748 73.64C149.628 74.04 148.401 74.24 147.068 74.24ZM146.948 65.96C145.668 65.96 144.481 65.7333 143.388 65.28C142.321 64.8 141.374 64.1333 140.548 63.28C139.748 62.4267 139.121 61.4267 138.668 60.28C138.241 59.1333 138.028 57.88 138.028 56.52C138.028 55.16 138.241 53.9067 138.668 52.76C139.121 51.6133 139.748 50.6133 140.548 49.76C141.348 48.9067 142.281 48.2533 143.348 47.8C144.441 47.32 145.628 47.08 146.908 47.08C148.081 47.08 149.148 47.3067 150.108 47.76C151.068 48.2133 151.881 48.8667 152.548 49.72C153.241 50.5467 153.761 51.5333 154.108 52.68C154.454 53.8267 154.628 55.1067 154.628 56.52C154.628 58.44 154.321 60.1067 153.708 61.52C153.094 62.9333 152.214 64.0267 151.068 64.8C149.921 65.5733 148.548 65.96 146.948 65.96ZM147.148 62.68C148.214 62.68 149.174 62.4133 150.028 61.88C150.881 61.3467 151.561 60.6133 152.068 59.68C152.574 58.7467 152.828 57.6667 152.828 56.44C152.828 55.24 152.574 54.1867 152.068 53.28C151.561 52.3467 150.868 51.6267 149.988 51.12C149.134 50.6133 148.161 50.36 147.068 50.36C145.974 50.36 145.001 50.6133 144.148 51.12C143.294 51.6267 142.628 52.3467 142.148 53.28C141.694 54.1867 141.468 55.2533 141.468 56.48C141.468 57.7067 141.708 58.7867 142.188 59.72C142.668 60.6267 143.334 61.3467 144.188 61.88C145.041 62.4133 146.028 62.68 147.148 62.68ZM173.205 66.4C172.351 66.4 171.578 66.32 170.885 66.16C170.218 66.0267 169.631 65.8 169.125 65.48C168.618 65.16 168.191 64.7467 167.845 64.24C167.525 63.7333 167.285 63.12 167.125 62.4C166.991 61.68 166.925 60.84 166.925 59.88V39.88C166.925 39.48 166.951 39.1467 167.005 38.88C167.085 38.6133 167.258 38.4133 167.525 38.28C167.791 38.12 168.165 38.04 168.645 38.04C169.178 38.04 169.565 38.1067 169.805 38.24C170.071 38.3733 170.245 38.5733 170.325 38.84C170.405 39.1067 170.445 39.4267 170.445 39.8V59.84C170.445 60.3733 170.498 60.84 170.605 61.24C170.711 61.6133 170.871 61.9333 171.085 62.2C171.325 62.4667 171.618 62.6533 171.965 62.76C172.311 62.8667 172.725 62.92 173.205 62.92C173.525 62.92 173.791 62.96 174.005 63.04C174.245 63.12 174.431 63.28 174.565 63.52C174.698 63.76 174.765 64.1333 174.765 64.64C174.765 65.1733 174.698 65.5733 174.565 65.84C174.431 66.08 174.245 66.2267 174.005 66.28C173.791 66.36 173.525 66.4 173.205 66.4ZM185.935 66.4C185.428 66.4 185.041 66.32 184.775 66.16C184.535 66.0267 184.375 65.8267 184.295 65.56C184.215 65.2933 184.175 64.9733 184.175 64.6V48.8C184.175 48.4267 184.215 48.1067 184.295 47.84C184.375 47.5733 184.535 47.3733 184.775 47.24C185.041 47.1067 185.441 47.04 185.975 47.04C186.481 47.04 186.855 47.12 187.095 47.28C187.335 47.4133 187.495 47.6133 187.575 47.88C187.655 48.1467 187.695 48.48 187.695 48.88V64.64C187.695 65.0133 187.655 65.3333 187.575 65.6C187.495 65.8667 187.321 66.0667 187.055 66.2C186.815 66.3333 186.441 66.4 185.935 66.4ZM185.935 42.24C185.348 42.24 184.908 42.16 184.615 42C184.321 41.8133 184.121 41.56 184.015 41.24C183.935 40.92 183.895 40.5467 183.895 40.12C183.895 39.6933 183.948 39.3333 184.055 39.04C184.161 38.72 184.361 38.4933 184.655 38.36C184.948 38.2 185.388 38.12 185.975 38.12C186.535 38.12 186.961 38.2 187.255 38.36C187.548 38.52 187.735 38.76 187.815 39.08C187.921 39.4 187.975 39.7733 187.975 40.2C187.975 40.6267 187.921 41 187.815 41.32C187.735 41.6133 187.548 41.84 187.255 42C186.961 42.16 186.521 42.24 185.935 42.24ZM204.96 66.6C204.32 66.6 203.653 66.5333 202.96 66.4C202.267 66.2667 201.587 66.08 200.92 65.84C200.28 65.5733 199.707 65.2667 199.2 64.92C198.72 64.5733 198.36 64.1867 198.12 63.76C197.987 63.4933 197.907 63.2533 197.88 63.04C197.853 62.8 197.893 62.5733 198 62.36C198.107 62.1467 198.267 61.9333 198.48 61.72C198.747 61.4 199.013 61.2533 199.28 61.28C199.547 61.28 199.88 61.4533 200.28 61.8C200.573 61.9867 200.92 62.2 201.32 62.44C201.72 62.6533 202.133 62.8533 202.56 63.04C202.987 63.2 203.413 63.3467 203.84 63.48C204.293 63.5867 204.733 63.64 205.16 63.64C206.387 63.64 207.373 63.4133 208.12 62.96C208.867 62.48 209.24 61.8533 209.24 61.08C209.24 60.6267 209.147 60.24 208.96 59.92C208.773 59.6 208.52 59.3333 208.2 59.12C207.88 58.88 207.52 58.68 207.12 58.52C206.72 58.36 206.267 58.2133 205.76 58.08C205.28 57.92 204.8 57.7733 204.32 57.64C203.6 57.4533 202.893 57.24 202.2 57C201.507 56.76 200.88 56.4533 200.32 56.08C199.76 55.68 199.307 55.1867 198.96 54.6C198.613 53.9867 198.44 53.2133 198.44 52.28C198.44 51.1867 198.72 50.24 199.28 49.44C199.84 48.64 200.627 48.0267 201.64 47.6C202.653 47.1467 203.84 46.92 205.2 46.92C205.787 46.92 206.333 46.96 206.84 47.04C207.347 47.12 207.827 47.2533 208.28 47.44C208.76 47.6 209.213 47.8 209.64 48.04C210.067 48.2533 210.48 48.52 210.88 48.84C211.36 49.16 211.613 49.5067 211.64 49.88C211.667 50.2533 211.52 50.64 211.2 51.04C210.96 51.3867 210.693 51.6133 210.4 51.72C210.107 51.8 209.813 51.72 209.52 51.48C209.093 51.16 208.64 50.88 208.16 50.64C207.68 50.4 207.187 50.2 206.68 50.04C206.173 49.88 205.653 49.8 205.12 49.8C204.453 49.8 203.853 49.9067 203.32 50.12C202.813 50.3067 202.413 50.6 202.12 51C201.853 51.3733 201.72 51.8 201.72 52.28C201.72 52.7067 201.827 53.0533 202.04 53.32C202.28 53.5867 202.573 53.8133 202.92 54C203.293 54.1867 203.72 54.36 204.2 54.52C204.707 54.6533 205.227 54.7867 205.76 54.92C206.533 55.1067 207.32 55.3333 208.12 55.6C208.947 55.84 209.68 56.1733 210.32 56.6C210.987 57 211.52 57.5467 211.92 58.24C212.347 58.9067 212.56 59.8 212.56 60.92C212.56 62.68 211.867 64.0667 210.48 65.08C209.093 66.0933 207.253 66.6 204.96 66.6ZM223.959 66.4C223.453 66.4 223.066 66.32 222.799 66.16C222.533 66.0267 222.359 65.8267 222.279 65.56C222.226 65.2667 222.199 64.9333 222.199 64.56V39.92C222.199 39.5467 222.239 39.2267 222.319 38.96C222.399 38.6933 222.573 38.4933 222.839 38.36C223.106 38.2 223.493 38.12 223.999 38.12C224.533 38.12 224.919 38.2 225.159 38.36C225.426 38.4933 225.586 38.6933 225.639 38.96C225.719 39.2267 225.759 39.56 225.759 39.96V49.84C226.399 49.0933 227.173 48.4267 228.079 47.84C229.013 47.2533 230.146 46.96 231.479 46.96C233.053 46.96 234.453 47.3333 235.679 48.08C236.933 48.8 237.919 49.8267 238.639 51.16C239.386 52.4933 239.759 54.08 239.759 55.92V64.6C239.759 64.9733 239.719 65.2933 239.639 65.56C239.559 65.8267 239.399 66.0267 239.159 66.16C238.919 66.32 238.533 66.4 237.999 66.4C237.493 66.4 237.106 66.32 236.839 66.16C236.573 66.0267 236.399 65.8267 236.319 65.56C236.239 65.2667 236.199 64.9333 236.199 64.56V55.88C236.199 54.76 236.013 53.7867 235.639 52.96C235.266 52.1333 234.706 51.4933 233.959 51.04C233.239 50.5867 232.319 50.36 231.199 50.36C229.679 50.36 228.426 50.8 227.439 51.68C226.479 52.5333 225.919 53.68 225.759 55.12V64.6C225.759 64.9733 225.719 65.2933 225.639 65.56C225.559 65.8267 225.386 66.0267 225.119 66.16C224.879 66.32 224.493 66.4 223.959 66.4ZM256.766 66.52C255.992 66.52 255.232 66.4267 254.486 66.24C253.766 66.0533 253.099 65.8133 252.486 65.52C251.872 65.2267 251.326 64.9067 250.846 64.56C250.366 64.2133 249.966 63.88 249.646 63.56C249.352 63.2667 249.099 63 248.886 62.76C248.699 62.52 248.606 62.2933 248.606 62.08C248.606 61.84 248.686 61.6 248.846 61.36C249.006 61.0933 249.179 60.8667 249.366 60.68C249.659 60.3867 249.899 60.2 250.086 60.12C250.299 60.0133 250.499 59.96 250.686 59.96C251.059 59.96 251.352 60.08 251.566 60.32C251.806 60.56 252.152 60.8933 252.606 61.32C252.872 61.5067 253.219 61.7333 253.646 62C254.072 62.2667 254.566 62.5067 255.126 62.72C255.686 62.9067 256.286 63 256.926 63C257.806 63 258.566 62.84 259.206 62.52C259.846 62.2 260.366 61.7467 260.766 61.16C261.192 60.5733 261.512 59.8933 261.726 59.12C261.939 58.32 262.046 57.4667 262.046 56.56V40.6C262.046 40.1733 262.086 39.8 262.166 39.48C262.246 39.16 262.419 38.92 262.686 38.76C262.979 38.5733 263.392 38.48 263.926 38.48C264.432 38.48 264.806 38.56 265.046 38.72C265.286 38.8533 265.446 39.0667 265.526 39.36C265.606 39.6267 265.646 39.9467 265.646 40.32V56.88C265.646 58.2933 265.446 59.5867 265.046 60.76C264.672 61.9333 264.112 62.9467 263.366 63.8C262.619 64.6533 261.686 65.32 260.566 65.8C259.472 66.28 258.206 66.52 256.766 66.52ZM285.369 66.64C284.062 66.64 282.809 66.3867 281.609 65.88C280.436 65.3733 279.382 64.68 278.449 63.8C277.516 62.8933 276.782 61.84 276.249 60.64C275.716 59.44 275.449 58.1333 275.449 56.72C275.449 55.3333 275.702 54.0533 276.209 52.88C276.716 51.68 277.422 50.6267 278.329 49.72C279.236 48.8133 280.276 48.1067 281.449 47.6C282.649 47.0667 283.929 46.8 285.289 46.8C287.129 46.8 288.782 47.24 290.249 48.12C291.742 48.9733 292.929 50.1467 293.809 51.64C294.689 53.1333 295.129 54.8133 295.129 56.68C295.129 58.1467 294.862 59.4933 294.329 60.72C293.796 61.92 293.076 62.96 292.169 63.84C291.262 64.72 290.222 65.4133 289.049 65.92C287.876 66.4 286.649 66.64 285.369 66.64ZM285.289 63.16C286.409 63.16 287.449 62.88 288.409 62.32C289.369 61.76 290.142 60.9867 290.729 60C291.316 59.0133 291.609 57.8933 291.609 56.64C291.609 55.3867 291.329 54.28 290.769 53.32C290.236 52.36 289.489 51.6133 288.529 51.08C287.569 50.5467 286.476 50.28 285.249 50.28C284.076 50.28 283.009 50.56 282.049 51.12C281.116 51.68 280.356 52.44 279.769 53.4C279.209 54.36 278.929 55.4533 278.929 56.68C278.929 57.96 279.222 59.0933 279.809 60.08C280.396 61.04 281.169 61.8 282.129 62.36C283.116 62.8933 284.169 63.16 285.289 63.16ZM307.661 74.16C307.021 73.8933 306.648 73.5867 306.541 73.24C306.434 72.8933 306.528 72.4133 306.821 71.8L317.421 48C317.714 47.3867 318.021 47.0133 318.341 46.88C318.688 46.72 319.168 46.7733 319.781 47.04C320.421 47.3333 320.781 47.6533 320.861 48C320.968 48.3467 320.888 48.8133 320.621 49.4L309.941 73.32C309.674 73.9333 309.381 74.2933 309.061 74.4C308.741 74.5067 308.274 74.4267 307.661 74.16ZM311.621 63.84L302.461 49.72C302.114 49.1867 301.981 48.7467 302.061 48.4C302.141 48.0267 302.448 47.6667 302.981 47.32C303.568 46.9467 304.034 46.8133 304.381 46.92C304.754 47 305.128 47.3067 305.501 47.84L313.261 60.04L311.621 63.84Z" fill="black"/>
<path d="M46.5223 1.89958C58.6166 14.7466 61.3116 24.6303 59.0641 32.7089C56.7107 41.1687 48.8979 47.8584 40.0595 54.0203C37.6212 55.7203 35.1426 57.3556 32.6894 58.9743C30.6808 60.2995 28.6892 61.6135 26.7504 62.9428C22.4811 65.8698 18.5498 68.8178 15.5714 71.9381C12.593 75.0582 10.5287 78.3906 10.0643 82.0898C9.73565 84.708 10.2138 87.4642 11.673 90.4067C1.84148 79.9941 -0.632805 72.0342 0.93515 65.4142C1.80075 61.7596 3.90995 58.4472 6.81522 55.2993C9.72158 52.1501 13.4014 49.19 17.3744 46.2348C18.9494 45.0632 20.5717 43.892 22.2083 42.7104C28.7935 37.9562 35.6094 33.0353 40.5074 27.2552C43.5758 23.6342 45.9156 19.652 46.9876 15.1296C47.9311 11.1494 47.8862 6.77712 46.5223 1.89958Z" fill="#F5A623" stroke="white"/>
<path d="M56.2727 44.9871C64.4631 54.8104 66.0319 61.9947 64.1614 67.7058C63.1414 70.8199 61.082 73.5602 58.3902 76.0985C55.6975 78.6377 52.3971 80.952 48.9263 83.2224C47.8099 83.9526 46.6742 84.6794 45.5365 85.4074C43.1515 86.9337 40.7581 88.4653 38.5175 90.0453C35.2032 92.3826 32.1762 94.8571 29.9297 97.6452C27.6779 100.44 26.1994 103.563 26.0097 107.187C25.8498 110.24 26.6073 113.607 28.5266 117.385C17.3527 108.472 14.1748 101.359 15.2561 95.3311C15.8307 92.1279 17.6165 89.1511 20.1912 86.2968C22.766 83.4424 26.1028 80.7399 29.7326 78.0826C31.7764 76.5864 33.887 75.1227 36.0012 73.6565C37.6605 72.5057 39.322 71.3534 40.9552 70.1827C44.643 67.5392 48.1313 64.8388 50.9061 61.9836C53.6797 59.1296 55.7714 56.0899 56.6207 52.7607C57.2463 50.3082 57.1903 47.7273 56.2727 44.9871Z" fill="#4A90E2" stroke="white"/>
<path d="M43.8225 100.49H43.8227C49.7297 100.49 54.4691 104.996 54.4691 110.495C54.4691 115.992 49.7296 120.5 43.8227 120.5C37.9156 120.5 33.1763 115.998 33.1763 110.495C33.1763 104.996 37.9158 100.488 43.8225 100.49Z" fill="#39B54A" stroke="white"/>
</svg>
