<svg width="58" height="57" viewBox="0 0 58 57" fill="none" xmlns="http://www.w3.org/2000/svg">
<path d="M24.2235 4.43569C25.6766 -0.260199 32.3234 -0.2602 33.7765 4.43569L36.8907 14.4994C37.5387 16.5935 39.4752 18.0213 41.6672 18.0213H52.2444C57.0288 18.0213 59.0809 24.0947 55.2771 26.9966L46.3069 33.8396C44.6394 35.1118 43.943 37.2894 44.563 39.293L47.8892 50.0418C49.3281 54.6916 43.9499 58.4474 40.0801 55.4952L32.0326 49.3561C30.2417 47.9898 27.7583 47.9898 25.9674 49.3561L17.92 55.4952C14.0501 58.4474 8.6719 54.6916 10.1108 50.0418L13.437 39.293C14.057 37.2894 13.3606 35.1118 11.6931 33.8396L2.72294 26.9966C-1.08092 24.0947 0.971211 18.0213 5.75557 18.0213H16.3328C18.5248 18.0213 20.4613 16.5935 21.1093 14.4994L24.2235 4.43569Z" fill="#FFC107"/>
</svg>
